<svg xmlns="http://www.w3.org/2000/svg" viewBox="0 0 600 400" fill="none"><rect width="600" height="400" fill="#0A0C10"/><g stroke="#1A1F26" stroke-width="1.5"><line x1="0" y1="200" x2="600" y2="200"/><line x1="300" y1="0" x2="300" y2="400"/><line x1="0" y1="100" x2="600" y2="100"/><line x1="0" y1="300" x2="600" y2="300"/><line x1="100" y1="0" x2="100" y2="400"/><line x1="200" y1="0" x2="200" y2="400"/><line x1="400" y1="0" x2="400" y2="400"/><line x1="500" y1="0" x2="500" y2="400"/></g><circle cx="320" cy="180" r="12" fill="#00C2A8" opacity="0.9"/><circle cx="320" cy="180" r="5" fill="#0A0C10"/><path d="M 280 200 L 295 200 L 295 192 L 315 205 L 295 218 L 295 210 Z" fill="#00E8D4"/><rect x="340" y="160" width="160" height="32" rx="4" fill="#12151B" stroke="rgba(0,194,168,0.3)" stroke-width="1"/><text x="352" y="181" fill="#00E8D4" font-family="monospace" font-size="13" font-weight="500">9C3W+4GW London</text><text x="300" y="340" text-anchor="middle" fill="#00E8D4" font-family="monospace" font-size="14">Gate pin + Plus Code</text></svg>
